<?xml version="1.0" encoding="UTF-8" standalone="no"?>
<!-- Created with Inkscape (http://www.inkscape.org/) -->

<svg
   xmlns:dc="http://purl.org/dc/elements/1.1/"
   xmlns:cc="http://creativecommons.org/ns#"
   xmlns:rdf="http://www.w3.org/1999/02/22-rdf-syntax-ns#"
   xmlns:svg="http://www.w3.org/2000/svg"
   xmlns="http://www.w3.org/2000/svg"
   xmlns:sodipodi="http://sodipodi.sourceforge.net/DTD/sodipodi-0.dtd"
   xmlns:inkscape="http://www.inkscape.org/namespaces/inkscape"
   width="147.20483"
   height="267.11447"
   id="svg2"
   version="1.1"
   inkscape:version="0.48.4 r9939"
   sodipodi:docname="hc-fails.svg">
  <defs
     id="defs4">
    <marker
       inkscape:stockid="Arrow1Mend"
       orient="auto"
       refY="0"
       refX="0"
       id="Arrow1Mend"
       style="overflow:visible">
      <path
         id="path3956"
         d="M 0,0 5,-5 -12.5,0 5,5 0,0 z"
         style="fill-rule:evenodd;stroke:#000000;stroke-width:1pt"
         transform="matrix(-0.4,0,0,-0.4,-4,0)"
         inkscape:connector-curvature="0" />
    </marker>
    <marker
       inkscape:stockid="Arrow1Lend"
       orient="auto"
       refY="0"
       refX="0"
       id="Arrow1Lend"
       style="overflow:visible">
      <path
         id="path3950"
         d="M 0,0 5,-5 -12.5,0 5,5 0,0 z"
         style="fill-rule:evenodd;stroke:#000000;stroke-width:1pt"
         transform="matrix(-0.8,0,0,-0.8,-10,0)"
         inkscape:connector-curvature="0" />
    </marker>
    <marker
       inkscape:stockid="Arrow1Lend"
       orient="auto"
       refY="0"
       refX="0"
       id="Arrow1Lend-3"
       style="overflow:visible">
      <path
         id="path3950-5"
         d="M 0,0 5,-5 -12.5,0 5,5 0,0 z"
         style="fill-rule:evenodd;stroke:#000000;stroke-width:1pt"
         transform="matrix(-0.8,0,0,-0.8,-10,0)"
         inkscape:connector-curvature="0" />
    </marker>
    <marker
       inkscape:stockid="Arrow1Lend"
       orient="auto"
       refY="0"
       refX="0"
       id="Arrow1Lend-0"
       style="overflow:visible">
      <path
         id="path3950-0"
         d="M 0,0 5,-5 -12.5,0 5,5 0,0 z"
         style="fill-rule:evenodd;stroke:#000000;stroke-width:1pt"
         transform="matrix(-0.8,0,0,-0.8,-10,0)"
         inkscape:connector-curvature="0" />
    </marker>
    <marker
       inkscape:stockid="Arrow1Lend"
       orient="auto"
       refY="0"
       refX="0"
       id="Arrow1Lend-2"
       style="overflow:visible">
      <path
         id="path3950-8"
         d="M 0,0 5,-5 -12.5,0 5,5 0,0 z"
         style="fill-rule:evenodd;stroke:#000000;stroke-width:1pt"
         transform="matrix(-0.8,0,0,-0.8,-10,0)"
         inkscape:connector-curvature="0" />
    </marker>
    <marker
       inkscape:stockid="Arrow1Lend"
       orient="auto"
       refY="0"
       refX="0"
       id="Arrow1Lend-5"
       style="overflow:visible">
      <path
         id="path3950-6"
         d="M 0,0 5,-5 -12.5,0 5,5 0,0 z"
         style="fill-rule:evenodd;stroke:#000000;stroke-width:1pt"
         transform="matrix(-0.8,0,0,-0.8,-10,0)"
         inkscape:connector-curvature="0" />
    </marker>
  </defs>
  <sodipodi:namedview
     id="base"
     pagecolor="#ffffff"
     bordercolor="#666666"
     borderopacity="1.0"
     inkscape:pageopacity="0.0"
     inkscape:pageshadow="2"
     inkscape:zoom="1.4"
     inkscape:cx="109.3013"
     inkscape:cy="132.73023"
     inkscape:document-units="px"
     inkscape:current-layer="layer1"
     showgrid="false"
     fit-margin-top="0"
     fit-margin-left="0"
     fit-margin-right="0"
     fit-margin-bottom="0"
     inkscape:window-width="1440"
     inkscape:window-height="818"
     inkscape:window-x="768"
     inkscape:window-y="25"
     inkscape:window-maximized="1" />
  <metadata
     id="metadata7">
    <rdf:RDF>
      <cc:Work
         rdf:about="">
        <dc:format>image/svg+xml</dc:format>
        <dc:type
           rdf:resource="http://purl.org/dc/dcmitype/StillImage" />
        <dc:title></dc:title>
      </cc:Work>
    </rdf:RDF>
  </metadata>
  <g
     inkscape:label="レイヤー 1"
     inkscape:groupmode="layer"
     id="layer1"
     transform="translate(-373.73817,-525.27339)">
    <path
       transform="matrix(0.33076926,0,0,0.33076926,363.21115,367.28374)"
       sodipodi:type="arc"
       style="color:#000000;fill:#d3d3d3;fill-opacity:1;fill-rule:nonzero;stroke:none;stroke-width:0.33500001;marker:none;visibility:visible;display:inline;overflow:visible;enable-background:accumulate"
       id="path2985-2-3-0-6-1"
       sodipodi:cx="123.23861"
       sodipodi:cy="767.49915"
       sodipodi:rx="24.243662"
       sodipodi:ry="24.243662"
       d="m 147.48227,767.49915 c 0,13.3894 -10.85426,24.24366 -24.24366,24.24366 -13.38941,0 -24.243663,-10.85426 -24.243663,-24.24366 0,-13.38941 10.854253,-24.24367 24.243663,-24.24367 13.3894,0 24.24366,10.85426 24.24366,24.24367 z" />
    <path
       transform="matrix(0.33076926,0,0,0.33076926,401.21115,367.28374)"
       sodipodi:type="arc"
       style="color:#000000;fill:#d3d3d3;fill-opacity:1;fill-rule:nonzero;stroke:none;stroke-width:0.33500001;marker:none;visibility:visible;display:inline;overflow:visible;enable-background:accumulate"
       id="path2985-2-3-0-6-4"
       sodipodi:cx="123.23861"
       sodipodi:cy="767.49915"
       sodipodi:rx="24.243662"
       sodipodi:ry="24.243662"
       d="m 147.48227,767.49915 c 0,13.3894 -10.85426,24.24366 -24.24366,24.24366 -13.38941,0 -24.243663,-10.85426 -24.243663,-24.24366 0,-13.38941 10.854253,-24.24367 24.243663,-24.24367 13.3894,0 24.24366,10.85426 24.24366,24.24367 z" />
    <text
       xml:space="preserve"
       style="font-size:14px;font-style:normal;font-variant:normal;font-weight:bold;font-stretch:normal;text-indent:0;text-align:center;text-decoration:none;line-height:125%;letter-spacing:normal;word-spacing:normal;text-transform:none;direction:ltr;block-progression:tb;writing-mode:lr-tb;text-anchor:middle;baseline-shift:baseline;color:#000000;fill:#000000;fill-opacity:1;fill-rule:nonzero;stroke:none;stroke-width:1;marker:none;visibility:visible;display:inline;overflow:visible;enable-background:accumulate;font-family:'M+ 2c';-inkscape-font-specification:'M+ 2c Bold'"
       x="6.0714288"
       y="27.120825"
       id="text6497"
       sodipodi:linespacing="125%"
       transform="translate(14.472159,608.00165)"><tspan
         sodipodi:role="line"
         id="tspan6499"
         x="6.0714288"
         y="27.120825" /></text>
    <text
       xml:space="preserve"
       style="font-size:14px;font-style:normal;font-variant:normal;font-weight:bold;font-stretch:normal;text-indent:0;text-align:center;text-decoration:none;line-height:125%;letter-spacing:normal;word-spacing:normal;text-transform:none;direction:ltr;block-progression:tb;writing-mode:lr-tb;text-anchor:middle;baseline-shift:baseline;color:#000000;fill:#000000;fill-opacity:1;fill-rule:nonzero;stroke:none;stroke-width:0.33500001;marker:none;visibility:visible;display:inline;overflow:visible;enable-background:accumulate;font-family:'M+ 2c';-inkscape-font-specification:'M+ 2c Bold'"
       x="429.16504"
       y="792.24786"
       id="text3130-1-4"
       sodipodi:linespacing="125%"><tspan
         sodipodi:role="line"
         id="tspan3132-8-5"
         x="429.16504"
         y="792.24786">initial state</tspan></text>
    <path
       transform="matrix(0.33076926,0,0,0.33076926,379.42652,366.4266)"
       sodipodi:type="arc"
       style="color:#000000;fill:#d3d3d3;fill-opacity:1;fill-rule:nonzero;stroke:none;stroke-width:0.33500001;marker:none;visibility:visible;display:inline;overflow:visible;enable-background:accumulate"
       id="path2985-2-1-2-2"
       sodipodi:cx="123.23861"
       sodipodi:cy="767.49915"
       sodipodi:rx="24.243662"
       sodipodi:ry="24.243662"
       d="m 147.48227,767.49915 c 0,13.3894 -10.85426,24.24366 -24.24366,24.24366 -13.38941,0 -24.243663,-10.85426 -24.243663,-24.24366 0,-13.38941 10.854253,-24.24367 24.243663,-24.24367 13.3894,0 24.24366,10.85426 24.24366,24.24367 z" />
    <path
       transform="matrix(0.33076926,0,0,0.33076926,419.21115,379.28374)"
       sodipodi:type="arc"
       style="color:#000000;fill:#d3d3d3;fill-opacity:1;fill-rule:nonzero;stroke:none;stroke-width:0.33500001;marker:none;visibility:visible;display:inline;overflow:visible;enable-background:accumulate"
       id="path2985-2-3-0-6"
       sodipodi:cx="123.23861"
       sodipodi:cy="767.49915"
       sodipodi:rx="24.243662"
       sodipodi:ry="24.243662"
       d="m 147.48227,767.49915 c 0,13.3894 -10.85426,24.24366 -24.24366,24.24366 -13.38941,0 -24.243663,-10.85426 -24.243663,-24.24366 0,-13.38941 10.854253,-24.24367 24.243663,-24.24367 13.3894,0 24.24366,10.85426 24.24366,24.24367 z" />
    <path
       style="fill:none;stroke:#000000;stroke-width:1px;stroke-linecap:butt;stroke-linejoin:miter;stroke-opacity:1;marker-end:url(#Arrow1Lend)"
       d="m 493.30973,786.18698 0,-154.55334"
       id="path3173-9-5"
       inkscape:connector-curvature="0"
       sodipodi:nodetypes="cc" />
    <path
       transform="matrix(0.33076926,0,0,0.33076926,435.37721,325.08469)"
       sodipodi:type="arc"
       style="color:#000000;fill:#00bfff;fill-opacity:1;fill-rule:nonzero;stroke:none;stroke-width:1.01279068;marker:none;visibility:visible;display:inline;overflow:visible;enable-background:accumulate"
       id="path2985-2-1-1-11-7"
       sodipodi:cx="123.23861"
       sodipodi:cy="767.49915"
       sodipodi:rx="24.243662"
       sodipodi:ry="24.243662"
       d="m 147.48227,767.49915 c 0,13.3894 -10.85426,24.24366 -24.24366,24.24366 -13.38941,0 -24.243663,-10.85426 -24.243663,-24.24366 0,-13.38941 10.854253,-24.24367 24.243663,-24.24367 13.3894,0 24.24366,10.85426 24.24366,24.24367 z" />
    <path
       transform="matrix(0.33076926,0,0,0.33076926,369.27423,320.38056)"
       sodipodi:type="arc"
       style="color:#000000;fill:#00bfff;fill-opacity:1;fill-rule:nonzero;stroke:none;stroke-width:1.01279068;marker:none;visibility:visible;display:inline;overflow:visible;enable-background:accumulate"
       id="path2985-2-1-8-4-3"
       sodipodi:cx="123.23861"
       sodipodi:cy="767.49915"
       sodipodi:rx="24.243662"
       sodipodi:ry="24.243662"
       d="m 147.48227,767.49915 c 0,13.3894 -10.85426,24.24366 -24.24366,24.24366 -13.38941,0 -24.243663,-10.85426 -24.243663,-24.24366 0,-13.38941 10.854253,-24.24367 24.243663,-24.24367 13.3894,0 24.24366,10.85426 24.24366,24.24367 z" />
    <path
       transform="matrix(0.33076926,0,0,0.33076926,423.75684,411.10355)"
       sodipodi:type="arc"
       style="color:#000000;fill:#c0c0c0;fill-opacity:1;fill-rule:nonzero;stroke:none;stroke-width:0.33500001;marker:none;visibility:visible;display:inline;overflow:visible;enable-background:accumulate"
       id="path2985-2-1-3-6-9"
       sodipodi:cx="123.23861"
       sodipodi:cy="767.49915"
       sodipodi:rx="24.243662"
       sodipodi:ry="24.243662"
       d="m 147.48227,767.49915 c 0,13.3894 -10.85426,24.24366 -24.24366,24.24366 -13.38941,0 -24.243663,-10.85426 -24.243663,-24.24366 0,-13.38941 10.854253,-24.24367 24.243663,-24.24367 13.3894,0 24.24366,10.85426 24.24366,24.24367 z" />
    <path
       transform="matrix(0.33076926,0,0,0.33076926,427.79745,457.57057)"
       sodipodi:type="arc"
       style="color:#000000;fill:#c0c0c0;fill-opacity:1;fill-rule:nonzero;stroke:none;stroke-width:0.33500001;marker:none;visibility:visible;display:inline;overflow:visible;enable-background:accumulate"
       id="path2985-2-1-80-8-1"
       sodipodi:cx="123.23861"
       sodipodi:cy="767.49915"
       sodipodi:rx="24.243662"
       sodipodi:ry="24.243662"
       d="m 147.48227,767.49915 c 0,13.3894 -10.85426,24.24366 -24.24366,24.24366 -13.38941,0 -24.243663,-10.85426 -24.243663,-24.24366 0,-13.38941 10.854253,-24.24367 24.243663,-24.24367 13.3894,0 24.24366,10.85426 24.24366,24.24367 z" />
    <path
       transform="matrix(0.33076926,0,0,0.33076926,346.49759,309.14633)"
       sodipodi:type="arc"
       style="color:#000000;fill:#00bfff;fill-opacity:1;fill-rule:nonzero;stroke:none;stroke-width:1.01279068;marker:none;visibility:visible;display:inline;overflow:visible;enable-background:accumulate"
       id="path2985-2-1-1-47-6-4"
       sodipodi:cx="123.23861"
       sodipodi:cy="767.49915"
       sodipodi:rx="24.243662"
       sodipodi:ry="24.243662"
       d="m 147.48227,767.49915 c 0,13.3894 -10.85426,24.24366 -24.24366,24.24366 -13.38941,0 -24.243663,-10.85426 -24.243663,-24.24366 0,-13.38941 10.854253,-24.24367 24.243663,-24.24367 13.3894,0 24.24366,10.85426 24.24366,24.24367 z" />
    <path
       transform="matrix(0.33076926,0,0,0.33076926,425.77714,366.15176)"
       sodipodi:type="arc"
       style="color:#000000;fill:#ff0000;fill-opacity:1;fill-rule:nonzero;stroke:none;stroke-width:0.33500001;marker:none;visibility:visible;display:inline;overflow:visible;enable-background:accumulate"
       id="path2985-2-1-1-2-9-8"
       sodipodi:cx="123.23861"
       sodipodi:cy="767.49915"
       sodipodi:rx="24.243662"
       sodipodi:ry="24.243662"
       d="m 147.48227,767.49915 c 0,13.3894 -10.85426,24.24366 -24.24366,24.24366 -13.38941,0 -24.243663,-10.85426 -24.243663,-24.24366 0,-13.38941 10.854253,-24.24367 24.243663,-24.24367 13.3894,0 24.24366,10.85426 24.24366,24.24367 z" />
    <path
       transform="matrix(0.33076926,0,0,0.33076926,390.92688,372.21268)"
       sodipodi:type="arc"
       style="color:#000000;fill:#d3d3d3;fill-opacity:1;fill-rule:nonzero;stroke:none;stroke-width:0.33500001;marker:none;visibility:visible;display:inline;overflow:visible;enable-background:accumulate"
       id="path2985-2-1-1-1-8-9"
       sodipodi:cx="123.23861"
       sodipodi:cy="767.49915"
       sodipodi:rx="24.243662"
       sodipodi:ry="24.243662"
       d="m 147.48227,767.49915 c 0,13.3894 -10.85426,24.24366 -24.24366,24.24366 -13.38941,0 -24.243663,-10.85426 -24.243663,-24.24366 0,-13.38941 10.854253,-24.24367 24.243663,-24.24367 13.3894,0 24.24366,10.85426 24.24366,24.24367 z" />
    <path
       transform="matrix(0.33076926,0,0,0.33076926,417.48416,279.42732)"
       sodipodi:type="arc"
       style="color:#000000;fill:#00bfff;fill-opacity:1;fill-rule:nonzero;stroke:none;stroke-width:1.01279068;marker:none;visibility:visible;display:inline;overflow:visible;enable-background:accumulate"
       id="path2985-2-1-1-8-8-5"
       sodipodi:cx="123.23861"
       sodipodi:cy="767.49915"
       sodipodi:rx="24.243662"
       sodipodi:ry="24.243662"
       d="m 147.48227,767.49915 c 0,13.3894 -10.85426,24.24366 -24.24366,24.24366 -13.38941,0 -24.243663,-10.85426 -24.243663,-24.24366 0,-13.38941 10.854253,-24.24367 24.243663,-24.24367 13.3894,0 24.24366,10.85426 24.24366,24.24367 z" />
    <path
       transform="matrix(0.33076926,0,0,0.33076926,376.27351,287.32037)"
       sodipodi:type="arc"
       style="color:#000000;fill:#00bfff;fill-opacity:1;fill-rule:nonzero;stroke:none;stroke-width:1.01279068;marker:none;visibility:visible;display:inline;overflow:visible;enable-background:accumulate"
       id="path2985-2-1-1-5-3-5"
       sodipodi:cx="123.23861"
       sodipodi:cy="767.49915"
       sodipodi:rx="24.243662"
       sodipodi:ry="24.243662"
       d="m 147.48227,767.49915 c 0,13.3894 -10.85426,24.24366 -24.24366,24.24366 -13.38941,0 -24.243663,-10.85426 -24.243663,-24.24366 0,-13.38941 10.854253,-24.24367 24.243663,-24.24367 13.3894,0 24.24366,10.85426 24.24366,24.24367 z" />
    <path
       transform="matrix(0.33076926,0,0,0.33076926,452.5585,315.73335)"
       sodipodi:type="arc"
       style="color:#000000;fill:#00bfff;fill-opacity:1;fill-rule:nonzero;stroke:none;stroke-width:1.01279068;marker:none;visibility:visible;display:inline;overflow:visible;enable-background:accumulate"
       id="path2985-2-1-1-0-7-6"
       sodipodi:cx="123.23861"
       sodipodi:cy="767.49915"
       sodipodi:rx="24.243662"
       sodipodi:ry="24.243662"
       d="m 147.48227,767.49915 c 0,13.3894 -10.85426,24.24366 -24.24366,24.24366 -13.38941,0 -24.243663,-10.85426 -24.243663,-24.24366 0,-13.38941 10.854253,-24.24367 24.243663,-24.24367 13.3894,0 24.24366,10.85426 24.24366,24.24367 z" />
    <path
       transform="matrix(0.33076926,0,0,0.33076926,399.83007,318.12131)"
       sodipodi:type="arc"
       style="color:#000000;fill:#00bfff;fill-opacity:1;fill-rule:nonzero;stroke:none;stroke-width:1.01279068;marker:none;visibility:visible;display:inline;overflow:visible;enable-background:accumulate"
       id="path2985-2-1-1-3-7-8"
       sodipodi:cx="123.23861"
       sodipodi:cy="767.49915"
       sodipodi:rx="24.243662"
       sodipodi:ry="24.243662"
       d="m 147.48227,767.49915 c 0,13.3894 -10.85426,24.24366 -24.24366,24.24366 -13.38941,0 -24.243663,-10.85426 -24.243663,-24.24366 0,-13.38941 10.854253,-24.24367 24.243663,-24.24367 13.3894,0 24.24366,10.85426 24.24366,24.24367 z" />
    <text
       xml:space="preserve"
       style="font-size:14px;font-style:normal;font-variant:normal;font-weight:bold;font-stretch:normal;text-indent:0;text-align:center;text-decoration:none;line-height:125%;letter-spacing:normal;word-spacing:normal;text-transform:none;direction:ltr;block-progression:tb;writing-mode:lr-tb;text-anchor:middle;baseline-shift:baseline;color:#000000;fill:#ff0000;fill-opacity:1;fill-rule:nonzero;stroke:none;stroke-width:0.33500001;marker:none;visibility:visible;display:inline;overflow:visible;enable-background:accumulate;font-family:'M+ 2c';-inkscape-font-specification:'M+ 2c Bold'"
       x="491.67267"
       y="616.48132"
       id="text5662-3-4"
       sodipodi:linespacing="125%"><tspan
         sodipodi:role="line"
         id="tspan5664-1-1"
         x="491.67267"
         y="616.48132">goal</tspan></text>
    <path
       transform="matrix(0.33076926,0,0,0.33076926,389.0853,509.65559)"
       sodipodi:type="arc"
       style="color:#000000;fill:#c0c0c0;fill-opacity:1;fill-rule:nonzero;stroke:none;stroke-width:0.33500001;marker:none;visibility:visible;display:inline;overflow:visible;enable-background:accumulate"
       id="path2985-22-0"
       sodipodi:cx="123.23861"
       sodipodi:cy="767.49915"
       sodipodi:rx="24.243662"
       sodipodi:ry="24.243662"
       d="m 147.48227,767.49915 c 0,13.3894 -10.85426,24.24366 -24.24366,24.24366 -13.38941,0 -24.243663,-10.85426 -24.243663,-24.24366 0,-13.38941 10.854253,-24.24367 24.243663,-24.24367 13.3894,0 24.24366,10.85426 24.24366,24.24367 z" />
    <path
       transform="matrix(0.33076926,0,0,0.33076926,402.6058,481.94633)"
       sodipodi:type="arc"
       style="color:#000000;fill:#c0c0c0;fill-opacity:1;fill-rule:nonzero;stroke:none;stroke-width:0.33500001;marker:none;visibility:visible;display:inline;overflow:visible;enable-background:accumulate"
       id="path2985-8-2-0"
       sodipodi:cx="123.23861"
       sodipodi:cy="767.49915"
       sodipodi:rx="24.243662"
       sodipodi:ry="24.243662"
       d="m 147.48227,767.49915 c 0,13.3894 -10.85426,24.24366 -24.24366,24.24366 -13.38941,0 -24.243663,-10.85426 -24.243663,-24.24366 0,-13.38941 10.854253,-24.24367 24.243663,-24.24367 13.3894,0 24.24366,10.85426 24.24366,24.24367 z" />
    <path
       transform="matrix(0.33076926,0,0,0.33076926,363.5906,331.48799)"
       sodipodi:type="arc"
       style="color:#000000;fill:#00bfff;fill-opacity:1;fill-rule:nonzero;stroke:none;stroke-width:1.01279068;marker:none;visibility:visible;display:inline;overflow:visible;enable-background:accumulate"
       id="path2985-2-6-3"
       sodipodi:cx="123.23861"
       sodipodi:cy="767.49915"
       sodipodi:rx="24.243662"
       sodipodi:ry="24.243662"
       d="m 147.48227,767.49915 c 0,13.3894 -10.85426,24.24366 -24.24366,24.24366 -13.38941,0 -24.243663,-10.85426 -24.243663,-24.24366 0,-13.38941 10.854253,-24.24367 24.243663,-24.24367 13.3894,0 24.24366,10.85426 24.24366,24.24367 z" />
    <path
       transform="matrix(0.33076926,0,0,0.33076926,354.28661,289.77276)"
       sodipodi:type="arc"
       style="color:#000000;fill:#00bfff;fill-opacity:1;fill-rule:nonzero;stroke:none;stroke-width:1.01279068;marker:none;visibility:visible;display:inline;overflow:visible;enable-background:accumulate"
       id="path2985-2-1-1-8-3-5-3"
       sodipodi:cx="123.23861"
       sodipodi:cy="767.49915"
       sodipodi:rx="24.243662"
       sodipodi:ry="24.243662"
       d="m 147.48227,767.49915 c 0,13.3894 -10.85426,24.24366 -24.24366,24.24366 -13.38941,0 -24.243663,-10.85426 -24.243663,-24.24366 0,-13.38941 10.854253,-24.24367 24.243663,-24.24367 13.3894,0 24.24366,10.85426 24.24366,24.24367 z" />
    <path
       transform="matrix(0.33076926,0,0,0.33076926,411.60804,351.3799)"
       sodipodi:type="arc"
       style="color:#000000;fill:#00bfff;fill-opacity:1;fill-rule:nonzero;stroke:none;stroke-width:1.01279068;marker:none;visibility:visible;display:inline;overflow:visible;enable-background:accumulate"
       id="path2985-2-1-1-8-38-7-6"
       sodipodi:cx="123.23861"
       sodipodi:cy="767.49915"
       sodipodi:rx="24.243662"
       sodipodi:ry="24.243662"
       d="m 147.48227,767.49915 c 0,13.3894 -10.85426,24.24366 -24.24366,24.24366 -13.38941,0 -24.243663,-10.85426 -24.243663,-24.24366 0,-13.38941 10.854253,-24.24367 24.243663,-24.24367 13.3894,0 24.24366,10.85426 24.24366,24.24367 z" />
    <path
       transform="matrix(0.33076926,0,0,0.33076926,433.7509,344.95133)"
       sodipodi:type="arc"
       style="color:#000000;fill:#00bfff;fill-opacity:1;fill-rule:nonzero;stroke:none;stroke-width:1.01279068;marker:none;visibility:visible;display:inline;overflow:visible;enable-background:accumulate"
       id="path2985-2-1-1-8-1-9-5"
       sodipodi:cx="123.23861"
       sodipodi:cy="767.49915"
       sodipodi:rx="24.243662"
       sodipodi:ry="24.243662"
       d="m 147.48227,767.49915 c 0,13.3894 -10.85426,24.24366 -24.24366,24.24366 -13.38941,0 -24.243663,-10.85426 -24.243663,-24.24366 0,-13.38941 10.854253,-24.24367 24.243663,-24.24367 13.3894,0 24.24366,10.85426 24.24366,24.24367 z" />
    <path
       transform="matrix(0.33076926,0,0,0.33076926,346.2509,345.30847)"
       sodipodi:type="arc"
       style="color:#000000;fill:#00bfff;fill-opacity:1;fill-rule:nonzero;stroke:none;stroke-width:1.01279068;marker:none;visibility:visible;display:inline;overflow:visible;enable-background:accumulate"
       id="path2985-2-1-1-8-9-3-4"
       sodipodi:cx="123.23861"
       sodipodi:cy="767.49915"
       sodipodi:rx="24.243662"
       sodipodi:ry="24.243662"
       d="m 147.48227,767.49915 c 0,13.3894 -10.85426,24.24366 -24.24366,24.24366 -13.38941,0 -24.243663,-10.85426 -24.243663,-24.24366 0,-13.38941 10.854253,-24.24367 24.243663,-24.24367 13.3894,0 24.24366,10.85426 24.24366,24.24367 z" />
    <path
       transform="matrix(0.33076926,0,0,0.33076926,386.07233,340.30847)"
       sodipodi:type="arc"
       style="color:#000000;fill:#00bfff;fill-opacity:1;fill-rule:nonzero;stroke:none;stroke-width:1.01279068;marker:none;visibility:visible;display:inline;overflow:visible;enable-background:accumulate"
       id="path2985-2-1-1-8-92-5-1"
       sodipodi:cx="123.23861"
       sodipodi:cy="767.49915"
       sodipodi:rx="24.243662"
       sodipodi:ry="24.243662"
       d="m 147.48227,767.49915 c 0,13.3894 -10.85426,24.24366 -24.24366,24.24366 -13.38941,0 -24.243663,-10.85426 -24.243663,-24.24366 0,-13.38941 10.854253,-24.24367 24.243663,-24.24367 13.3894,0 24.24366,10.85426 24.24366,24.24367 z" />
    <text
       xml:space="preserve"
       style="font-size:14px;font-style:normal;font-variant:normal;font-weight:bold;font-stretch:normal;text-indent:0;text-align:center;text-decoration:none;line-height:125%;letter-spacing:normal;word-spacing:normal;text-transform:none;direction:ltr;block-progression:tb;writing-mode:lr-tb;text-anchor:middle;baseline-shift:baseline;color:#000000;fill:#000000;fill-opacity:1;fill-rule:nonzero;stroke:none;stroke-width:1;marker:none;visibility:visible;display:inline;overflow:visible;enable-background:accumulate;font-family:'M+ 2c';-inkscape-font-specification:'M+ 2c Bold'"
       x="501.98785"
       y="635.30914"
       id="text6515-3-9"
       sodipodi:linespacing="125%"><tspan
         sodipodi:role="line"
         id="tspan6517-7-3"
         x="501.98785"
         y="635.30914">f</tspan></text>
    <path
       transform="matrix(0.33076926,0,0,0.33076926,418.46713,323.57817)"
       sodipodi:type="arc"
       style="color:#000000;fill:#00bfff;fill-opacity:1;fill-rule:nonzero;stroke:none;stroke-width:1.01279068;marker:none;visibility:visible;display:inline;overflow:visible;enable-background:accumulate"
       id="path2985-2-0-8-8"
       sodipodi:cx="123.23861"
       sodipodi:cy="767.49915"
       sodipodi:rx="24.243662"
       sodipodi:ry="24.243662"
       d="m 147.48227,767.49915 c 0,13.3894 -10.85426,24.24366 -24.24366,24.24366 -13.38941,0 -24.243663,-10.85426 -24.243663,-24.24366 0,-13.38941 10.854253,-24.24367 24.243663,-24.24367 13.3894,0 24.24366,10.85426 24.24366,24.24367 z" />
    <path
       transform="matrix(0.33076926,0,0,0.33076926,388.16255,323.07309)"
       sodipodi:type="arc"
       style="color:#000000;fill:#00bfff;fill-opacity:1;fill-rule:nonzero;stroke:none;stroke-width:1.01279068;marker:none;visibility:visible;display:inline;overflow:visible;enable-background:accumulate"
       id="path2985-2-4-6-9"
       sodipodi:cx="123.23861"
       sodipodi:cy="767.49915"
       sodipodi:rx="24.243662"
       sodipodi:ry="24.243662"
       d="m 147.48227,767.49915 c 0,13.3894 -10.85426,24.24366 -24.24366,24.24366 -13.38941,0 -24.243663,-10.85426 -24.243663,-24.24366 0,-13.38941 10.854253,-24.24367 24.243663,-24.24367 13.3894,0 24.24366,10.85426 24.24366,24.24367 z" />
    <path
       transform="matrix(0.33076926,0,0,0.33076926,399.27423,286.20253)"
       sodipodi:type="arc"
       style="color:#000000;fill:#00bfff;fill-opacity:1;fill-rule:nonzero;stroke:none;stroke-width:1.01279068;marker:none;visibility:visible;display:inline;overflow:visible;enable-background:accumulate"
       id="path2985-2-1-1-4-2-0"
       sodipodi:cx="123.23861"
       sodipodi:cy="767.49915"
       sodipodi:rx="24.243662"
       sodipodi:ry="24.243662"
       d="m 147.48227,767.49915 c 0,13.3894 -10.85426,24.24366 -24.24366,24.24366 -13.38941,0 -24.243663,-10.85426 -24.243663,-24.24366 0,-13.38941 10.854253,-24.24367 24.243663,-24.24367 13.3894,0 24.24366,10.85426 24.24366,24.24367 z" />
    <path
       transform="matrix(0.33076926,0,0,0.33076926,436.1448,299.33451)"
       sodipodi:type="arc"
       style="color:#000000;fill:#00bfff;fill-opacity:1;fill-rule:nonzero;stroke:none;stroke-width:1.01279068;marker:none;visibility:visible;display:inline;overflow:visible;enable-background:accumulate"
       id="path2985-2-1-1-12-7-0"
       sodipodi:cx="123.23861"
       sodipodi:cy="767.49915"
       sodipodi:rx="24.243662"
       sodipodi:ry="24.243662"
       d="m 147.48227,767.49915 c 0,13.3894 -10.85426,24.24366 -24.24366,24.24366 -13.38941,0 -24.243663,-10.85426 -24.243663,-24.24366 0,-13.38941 10.854253,-24.24367 24.243663,-24.24367 13.3894,0 24.24366,10.85426 24.24366,24.24367 z" />
    <path
       transform="matrix(0.33076926,0,0,0.33076926,390.68794,306.40558)"
       sodipodi:type="arc"
       style="color:#000000;fill:#00bfff;fill-opacity:1;fill-rule:nonzero;stroke:none;stroke-width:1.01279068;marker:none;visibility:visible;display:inline;overflow:visible;enable-background:accumulate"
       id="path2985-2-1-1-53-0-9"
       sodipodi:cx="123.23861"
       sodipodi:cy="767.49915"
       sodipodi:rx="24.243662"
       sodipodi:ry="24.243662"
       d="m 147.48227,767.49915 c 0,13.3894 -10.85426,24.24366 -24.24366,24.24366 -13.38941,0 -24.243663,-10.85426 -24.243663,-24.24366 0,-13.38941 10.854253,-24.24367 24.243663,-24.24367 13.3894,0 24.24366,10.85426 24.24366,24.24367 z" />
    <path
       transform="matrix(0.33076926,0,0,0.33076926,419.47728,302.36497)"
       sodipodi:type="arc"
       style="color:#000000;fill:#00bfff;fill-opacity:1;fill-rule:nonzero;stroke:none;stroke-width:1.01279068;marker:none;visibility:visible;display:inline;overflow:visible;enable-background:accumulate"
       id="path2985-2-1-1-7-1-5"
       sodipodi:cx="123.23861"
       sodipodi:cy="767.49915"
       sodipodi:rx="24.243662"
       sodipodi:ry="24.243662"
       d="m 147.48227,767.49915 c 0,13.3894 -10.85426,24.24366 -24.24366,24.24366 -13.38941,0 -24.243663,-10.85426 -24.243663,-24.24366 0,-13.38941 10.854253,-24.24367 24.243663,-24.24367 13.3894,0 24.24366,10.85426 24.24366,24.24367 z" />
    <path
       style="color:#000000;fill:#00bfff;fill-opacity:1;fill-rule:nonzero;stroke:none;stroke-width:0.33500001;marker:none;visibility:visible;display:inline;overflow:visible;enable-background:accumulate"
       d="m 520.94301,535.4236 -117.67857,0"
       id="path6495-4-1"
       inkscape:connector-curvature="0"
       sodipodi:nodetypes="cc" />
    <path
       style="fill:none;stroke:#000000;stroke-width:1;stroke-linecap:butt;stroke-linejoin:miter;stroke-miterlimit:4;stroke-opacity:1;stroke-dasharray:2, 1;stroke-dashoffset:0"
       d="m 510.51444,620.4236 -117.67857,0"
       id="path6495-4-6"
       inkscape:connector-curvature="0"
       sodipodi:nodetypes="cc" />
    <text
       xml:space="preserve"
       style="font-size:24px;font-style:normal;font-variant:normal;font-weight:bold;font-stretch:normal;text-indent:0;text-align:center;text-decoration:none;line-height:125%;letter-spacing:normal;word-spacing:normal;text-transform:none;direction:ltr;block-progression:tb;writing-mode:lr-tb;text-anchor:middle;baseline-shift:baseline;color:#000000;fill:#000000;fill-opacity:1;fill-rule:nonzero;stroke:none;stroke-width:1;marker:none;visibility:visible;display:inline;overflow:visible;enable-background:accumulate;font-family:'M+ 2c';-inkscape-font-specification:'M+ 2c Bold'"
       x="414.07004"
       y="680.47961"
       id="text3147"
       sodipodi:linespacing="125%"><tspan
         sodipodi:role="line"
         id="tspan3149"
         x="414.07004"
         y="680.47961">f=g+h<tspan
   style="font-size:65.00091553%;baseline-shift:sub"
   id="tspan3129">c</tspan></tspan></text>
    <rect
       style="color:#000000;fill:none;stroke:#000000;stroke-width:1;stroke-linecap:butt;stroke-linejoin:miter;stroke-miterlimit:4;stroke-opacity:1;stroke-dasharray:2, 1;stroke-dashoffset:0;marker:none;visibility:visible;display:inline;overflow:visible;enable-background:accumulate"
       id="rect3131"
       width="97.14286"
       height="26.071428"
       x="380.85574"
       y="610.47961" />
  </g>
</svg>
