<?xml version="1.0" encoding="UTF-8" standalone="no"?>
<!-- Created with Inkscape (http://www.inkscape.org/) -->

<svg
   xmlns:dc="http://purl.org/dc/elements/1.1/"
   xmlns:cc="http://creativecommons.org/ns#"
   xmlns:rdf="http://www.w3.org/1999/02/22-rdf-syntax-ns#"
   xmlns:svg="http://www.w3.org/2000/svg"
   xmlns="http://www.w3.org/2000/svg"
   xmlns:sodipodi="http://sodipodi.sourceforge.net/DTD/sodipodi-0.dtd"
   xmlns:inkscape="http://www.inkscape.org/namespaces/inkscape"
   width="132.55269"
   height="147.12001"
   id="svg2"
   version="1.1"
   inkscape:version="0.48.4 r9939"
   sodipodi:docname="tree-3.svg">
  <defs
     id="defs4" />
  <sodipodi:namedview
     id="base"
     pagecolor="#ffffff"
     bordercolor="#666666"
     borderopacity="1.0"
     inkscape:pageopacity="0.0"
     inkscape:pageshadow="2"
     inkscape:zoom="2.8"
     inkscape:cx="113.06917"
     inkscape:cy="77.878783"
     inkscape:document-units="px"
     inkscape:current-layer="layer1"
     showgrid="false"
     inkscape:window-width="1440"
     inkscape:window-height="818"
     inkscape:window-x="768"
     inkscape:window-y="25"
     inkscape:window-maximized="1"
     fit-margin-top="0"
     fit-margin-left="0"
     fit-margin-right="0"
     fit-margin-bottom="0" />
  <metadata
     id="metadata7">
    <rdf:RDF>
      <cc:Work
         rdf:about="">
        <dc:format>image/svg+xml</dc:format>
        <dc:type
           rdf:resource="http://purl.org/dc/dcmitype/StillImage" />
        <dc:title></dc:title>
      </cc:Work>
    </rdf:RDF>
  </metadata>
  <g
     inkscape:label="レイヤー 1"
     inkscape:groupmode="layer"
     id="layer1"
     transform="translate(-546.40222,-111.84109)">
    <text
       xml:space="preserve"
       style="font-size:24px;font-style:normal;font-variant:normal;font-weight:bold;font-stretch:normal;text-indent:0;text-align:center;text-decoration:none;line-height:125%;letter-spacing:normal;word-spacing:normal;text-transform:none;direction:ltr;block-progression:tb;writing-mode:lr-tb;text-anchor:middle;baseline-shift:baseline;color:#000000;fill:#000000;stroke:#00bfff;stroke-width:2;stroke-linecap:butt;stroke-linejoin:miter;stroke-miterlimit:4;stroke-opacity:1;stroke-dasharray:none;stroke-dashoffset:0;marker:none;visibility:visible;display:inline;overflow:visible;enable-background:accumulate;font-family:'M+ 2c';-inkscape-font-specification:'M+ 2c Bold'"
       x="77.85714"
       y="198.07648"
       id="text2985"
       sodipodi:linespacing="125%"><tspan
         sodipodi:role="line"
         id="tspan2987"
         x="77.85714"
         y="198.07648" /></text>
    <path
       sodipodi:type="arc"
       style="color:#000000;fill:#a9a9a9;fill-opacity:1;fill-rule:nonzero;stroke:none;stroke-width:2;marker:none;visibility:visible;display:inline;overflow:visible;enable-background:accumulate"
       id="path2993-9-51"
       sodipodi:cx="68.571426"
       sodipodi:cy="155.93361"
       sodipodi:rx="7.8571429"
       sodipodi:ry="7.8571429"
       d="m 76.428569,155.93361 c 0,4.33938 -3.517762,7.85714 -7.857143,7.85714 -4.33938,0 -7.857143,-3.51776 -7.857143,-7.85714 0,-4.33938 3.517763,-7.85714 7.857143,-7.85714 4.339381,0 7.857143,3.51776 7.857143,7.85714 z"
       transform="translate(522.11651,-14.543939)" />
    <path
       sodipodi:type="arc"
       style="color:#000000;fill:#a9a9a9;fill-opacity:1;fill-rule:nonzero;stroke:none;stroke-width:2;marker:none;visibility:visible;display:inline;overflow:visible;enable-background:accumulate"
       id="path2993-6-50"
       sodipodi:cx="68.571426"
       sodipodi:cy="155.93361"
       sodipodi:rx="7.8571429"
       sodipodi:ry="7.8571429"
       d="m 76.428569,155.93361 c 0,4.33938 -3.517762,7.85714 -7.857143,7.85714 -4.33938,0 -7.857143,-3.51776 -7.857143,-7.85714 0,-4.33938 3.517763,-7.85714 7.857143,-7.85714 4.339381,0 7.857143,3.51776 7.857143,7.85714 z"
       transform="translate(521.40223,19.741771)" />
    <path
       sodipodi:type="arc"
       style="color:#000000;fill:#a9a9a9;fill-opacity:1;fill-rule:nonzero;stroke:none;stroke-width:2;marker:none;visibility:visible;display:inline;overflow:visible;enable-background:accumulate"
       id="path2993-01-26"
       sodipodi:cx="68.571426"
       sodipodi:cy="155.93361"
       sodipodi:rx="7.8571429"
       sodipodi:ry="7.8571429"
       d="m 76.428569,155.93361 c 0,4.33938 -3.517762,7.85714 -7.857143,7.85714 -4.33938,0 -7.857143,-3.51776 -7.857143,-7.85714 0,-4.33938 3.517763,-7.85714 7.857143,-7.85714 4.339381,0 7.857143,3.51776 7.857143,7.85714 z"
       transform="translate(485.68794,3.3132013)" />
    <path
       sodipodi:type="arc"
       style="color:#000000;fill:#a9a9a9;fill-opacity:1;fill-rule:nonzero;stroke:none;stroke-width:2;marker:none;visibility:visible;display:inline;overflow:visible;enable-background:accumulate"
       id="path2993-3-7"
       sodipodi:cx="68.571426"
       sodipodi:cy="155.93361"
       sodipodi:rx="7.8571429"
       sodipodi:ry="7.8571429"
       d="m 76.428569,155.93361 c 0,4.33938 -3.517762,7.85714 -7.857143,7.85714 -4.33938,0 -7.857143,-3.51776 -7.857143,-7.85714 0,-4.33938 3.517763,-7.85714 7.857143,-7.85714 4.339381,0 7.857143,3.51776 7.857143,7.85714 z"
       transform="translate(564.97366,40.456059)" />
    <path
       sodipodi:type="arc"
       style="color:#000000;fill:#a9a9a9;fill-opacity:1;fill-rule:nonzero;stroke:none;stroke-width:2;marker:none;visibility:visible;display:inline;overflow:visible;enable-background:accumulate"
       id="path2993-1-7"
       sodipodi:cx="68.571426"
       sodipodi:cy="155.93361"
       sodipodi:rx="7.8571429"
       sodipodi:ry="7.8571429"
       d="m 76.428569,155.93361 c 0,4.33938 -3.517762,7.85714 -7.857143,7.85714 -4.33938,0 -7.857143,-3.51776 -7.857143,-7.85714 0,-4.33938 3.517763,-7.85714 7.857143,-7.85714 4.339381,0 7.857143,3.51776 7.857143,7.85714 z"
       transform="translate(565.68794,16.170341)" />
    <text
       xml:space="preserve"
       style="font-size:24px;font-style:normal;font-variant:normal;font-weight:bold;font-stretch:normal;text-indent:0;text-align:center;text-decoration:none;line-height:125%;letter-spacing:normal;word-spacing:normal;text-transform:none;direction:ltr;block-progression:tb;writing-mode:lr-tb;text-anchor:middle;baseline-shift:baseline;color:#000000;fill:#000000;fill-opacity:1;fill-rule:nonzero;stroke:none;stroke-width:2;marker:none;visibility:visible;display:inline;overflow:visible;enable-background:accumulate;font-family:'M+ 2c';-inkscape-font-specification:'M+ 2c Bold'"
       x="606.3017"
       y="258.7211"
       id="text2989-0-7"
       sodipodi:linespacing="125%"><tspan
         sodipodi:role="line"
         id="tspan2991-5-7"
         x="606.3017"
         y="258.7211">f=3</tspan></text>
    <path
       style="fill:none;stroke:#000000;stroke-width:1px;stroke-linecap:butt;stroke-linejoin:miter;stroke-opacity:1"
       d="m 561.58108,155.03773 21.2132,-11.11168"
       id="path3130-7"
       inkscape:connector-curvature="0" />
    <path
       style="fill:none;stroke:#000000;stroke-width:1px;stroke-linecap:butt;stroke-linejoin:miter;stroke-opacity:1"
       d="m 561.58108,162.1088 21.71828,9.59645"
       id="path3132-1"
       inkscape:connector-curvature="0" />
    <path
       style="fill:none;stroke:#000000;stroke-width:1px;stroke-linecap:butt;stroke-linejoin:miter;stroke-opacity:1"
       d="m 598.95672,175.74586 28.28427,-3.53554"
       id="path3134-1"
       inkscape:connector-curvature="0" />
    <path
       style="fill:none;stroke:#000000;stroke-width:1px;stroke-linecap:butt;stroke-linejoin:miter;stroke-opacity:1"
       d="m 596.93642,180.79662 27.77919,12.12183"
       id="path3136-8"
       inkscape:connector-curvature="0" />
    <path
       style="fill:none;stroke:#000000;stroke-width:1px;stroke-linecap:butt;stroke-linejoin:miter;stroke-opacity:1"
       d="m 599.4618,139.38036 25.25381,-7.57614"
       id="path3138-7"
       inkscape:connector-curvature="0" />
    <path
       sodipodi:type="arc"
       style="color:#000000;fill:#a9a9a9;fill-opacity:1;fill-rule:nonzero;stroke:none;stroke-width:2;marker:none;visibility:visible;display:inline;overflow:visible;enable-background:accumulate"
       id="path2993-9-7-1"
       sodipodi:cx="68.571426"
       sodipodi:cy="155.93361"
       sodipodi:rx="7.8571429"
       sodipodi:ry="7.8571429"
       d="m 76.428569,155.93361 c 0,4.33938 -3.517762,7.85714 -7.857143,7.85714 -4.33938,0 -7.857143,-3.51776 -7.857143,-7.85714 0,-4.33938 3.517763,-7.85714 7.857143,-7.85714 4.339381,0 7.857143,3.51776 7.857143,7.85714 z"
       transform="translate(565.74064,-25.644619)" />
    <path
       sodipodi:type="arc"
       style="color:#000000;fill:#000000;fill-opacity:1;fill-rule:nonzero;stroke:none;stroke-width:2;marker:none;visibility:visible;display:inline;overflow:visible;enable-background:accumulate"
       id="path2993-1-7-7"
       sodipodi:cx="68.571426"
       sodipodi:cy="155.93361"
       sodipodi:rx="7.8571429"
       sodipodi:ry="7.8571429"
       d="m 76.428569,155.93361 c 0,4.33938 -3.517762,7.85714 -7.857143,7.85714 -4.33938,0 -7.857143,-3.51776 -7.857143,-7.85714 0,-4.33938 3.517763,-7.85714 7.857143,-7.85714 4.339381,0 7.857143,3.51776 7.857143,7.85714 z"
       transform="translate(602.47365,-36.23538)" />
    <path
       sodipodi:type="arc"
       style="color:#000000;fill:#000000;fill-opacity:1;fill-rule:nonzero;stroke:none;stroke-width:2;marker:none;visibility:visible;display:inline;overflow:visible;enable-background:accumulate"
       id="path2993-9-7-1-3"
       sodipodi:cx="68.571426"
       sodipodi:cy="155.93361"
       sodipodi:rx="7.8571429"
       sodipodi:ry="7.8571429"
       d="m 76.428569,155.93361 c 0,4.33938 -3.517762,7.85714 -7.857143,7.85714 -4.33938,0 -7.857143,-3.51776 -7.857143,-7.85714 0,-4.33938 3.517763,-7.85714 7.857143,-7.85714 4.339381,0 7.857143,3.51776 7.857143,7.85714 z"
       transform="translate(602.52635,12.663946)" />
    <path
       sodipodi:type="arc"
       style="color:#000000;fill:#000000;fill-opacity:1;fill-rule:nonzero;stroke:none;stroke-width:2;marker:none;visibility:visible;display:inline;overflow:visible;enable-background:accumulate"
       id="path2993-3-7-5-8"
       sodipodi:cx="68.571426"
       sodipodi:cy="155.93361"
       sodipodi:rx="7.8571429"
       sodipodi:ry="7.8571429"
       d="m 76.428569,155.93361 c 0,4.33938 -3.517762,7.85714 -7.857143,7.85714 -4.33938,0 -7.857143,-3.51776 -7.857143,-7.85714 0,-4.33938 3.517763,-7.85714 7.857143,-7.85714 4.339381,0 7.857143,3.51776 7.857143,7.85714 z"
       transform="translate(602.14286,50.714287)" />
    <path
       sodipodi:type="arc"
       style="color:#000000;fill:#000000;fill-opacity:1;fill-rule:nonzero;stroke:none;stroke-width:2;marker:none;visibility:visible;display:inline;overflow:visible;enable-background:accumulate"
       id="path2993-3-7-5-1"
       sodipodi:cx="68.571426"
       sodipodi:cy="155.93361"
       sodipodi:rx="7.8571429"
       sodipodi:ry="7.8571429"
       d="m 76.428569,155.93361 c 0,4.33938 -3.517762,7.85714 -7.857143,7.85714 -4.33938,0 -7.857143,-3.51776 -7.857143,-7.85714 0,-4.33938 3.517763,-7.85714 7.857143,-7.85714 4.339381,0 7.857143,3.51776 7.857143,7.85714 z"
       transform="translate(601.42858,68.57143)" />
    <path
       style="fill:none;stroke:#000000;stroke-width:1px;stroke-linecap:butt;stroke-linejoin:miter;stroke-opacity:1"
       d="m 643.57143,172.36218 20.71428,-2.85714"
       id="path3261"
       inkscape:connector-curvature="0" />
    <path
       style="fill:none;stroke:#000000;stroke-width:1px;stroke-linecap:butt;stroke-linejoin:miter;stroke-opacity:1"
       d="m 642.85714,198.79075 17.85715,5"
       id="path3265"
       inkscape:connector-curvature="0" />
    <path
       style="fill:none;stroke:#000000;stroke-width:1px;stroke-linecap:butt;stroke-linejoin:miter;stroke-opacity:1"
       d="m 637.85714,203.07647 25,20.71428"
       id="path3267"
       inkscape:connector-curvature="0" />
    <path
       style="fill:none;stroke:#000000;stroke-width:1px;stroke-linecap:butt;stroke-linejoin:miter;stroke-opacity:1"
       d="m 640.71429,129.50504 23.57142,-6.42857"
       id="path3269"
       inkscape:connector-curvature="0" />
  </g>
</svg>
